<?xml version="1.0" encoding="UTF-8" standalone="no"?>
<!-- Created with Inkscape (http://www.inkscape.org/) -->

<svg
   xmlns:dc="http://purl.org/dc/elements/1.1/"
   xmlns:cc="http://creativecommons.org/ns#"
   xmlns:rdf="http://www.w3.org/1999/02/22-rdf-syntax-ns#"
   xmlns:svg="http://www.w3.org/2000/svg"
   xmlns="http://www.w3.org/2000/svg"
   xmlns:sodipodi="http://sodipodi.sourceforge.net/DTD/sodipodi-0.dtd"
   xmlns:inkscape="http://www.inkscape.org/namespaces/inkscape"
   width="14.400639mm"
   height="17.917503mm"
   viewBox="0 0 14.400639 17.917503"
   version="1.1"
   id="svg8"
   inkscape:version="0.92.4 (5da689c313, 2019-01-14)"
   sodipodi:docname="right.svg">
  <defs
     id="defs2" />
  <sodipodi:namedview
     id="base"
     pagecolor="#ffffff"
     bordercolor="#666666"
     borderopacity="1.0"
     inkscape:pageopacity="0.0"
     inkscape:pageshadow="2"
     inkscape:zoom="11.001136"
     inkscape:cx="25.653266"
     inkscape:cy="31.34468"
     inkscape:document-units="mm"
     inkscape:current-layer="layer1"
     showgrid="false"
     inkscape:window-width="1920"
     inkscape:window-height="1046"
     inkscape:window-x="-11"
     inkscape:window-y="-11"
     inkscape:window-maximized="1" />
  <metadata
     id="metadata5">
    <rdf:RDF>
      <cc:Work
         rdf:about="">
        <dc:format>image/svg+xml</dc:format>
        <dc:type
           rdf:resource="http://purl.org/dc/dcmitype/StillImage" />
        <dc:title></dc:title>
      </cc:Work>
    </rdf:RDF>
  </metadata>
  <g
     inkscape:label="Layer 1"
     inkscape:groupmode="layer"
     id="layer1"
     transform="translate(-177.17117,-202.3732)">
    <path
       sodipodi:nodetypes="ccccccccccccccccccccccccccccccccccccccccccccccccccc"
       inkscape:connector-curvature="0"
       id="path22-7"
       d="m 183.3775,220.28542 0.024,-1.82784 -0.38481,-0.98607 -0.93797,-0.76962 -0.60126,-0.98607 -0.98608,-1.03418 -0.60126,-0.96202 -1.15443,-1.27468 -0.40886,-0.84176 -0.96202,-0.57722 -0.0481,-0.43291 0.96202,-0.1443 1.58734,0.55316 1.10632,1.29873 0.60127,0.40886 0.69746,-0.024 0.76962,-1.15443 0.0241,-1.92404 -0.26455,-3.99239 0.31265,-1.61139 c 0.0565,-0.32848 0.29114,-0.56793 0.98608,-0.57721 l 0.60126,1.22658 0.26456,2.57341 0.1443,1.97214 0.40886,-0.024 v -3.24682 l 0.36076,-2.2367 0.1443,-0.62532 c 0.15056,-0.49919 0.44872,-0.48181 0.72152,-0.55316 0.33278,0.13223 0.87654,0.14725 0.67341,0.57721 l -0.0481,2.62151 -0.0481,1.39493 0.0962,2.2367 0.024,-1.17847 0.38481,-1.73164 0.28861,-1.82784 0.26455,-0.84177 c 0.56379,-0.252 0.77624,-0.0356 0.96202,0.21645 l 0.14431,1.37088 -0.33671,2.21265 -0.0241,1.65949 -0.12025,0.69747 1.10632,-2.45316 0.33671,-1.61139 c 0.29302,-0.33832 0.48346,-0.26636 0.64936,-0.0962 l 0.33671,1.17848 -0.79367,2.83796 -0.16835,1.97215 -1.32278,5.31517 -0.0241,1.9962 -0.0481,1.22657"
       style="display:inline;fill:none;stroke:#000000;stroke-width:0.26458332px;stroke-linecap:butt;stroke-linejoin:miter;stroke-opacity:1" />
  </g>
</svg>
